<svg xmlns="http://www.w3.org/2000/svg" version="1.1" xmlns:xlink="http://www.w3.org/1999/xlink" xmlns:svgjs="http://svgjs.dev/svgjs" width="1500" height="151" viewBox="0 0 1500 151"><g transform="matrix(1,0,0,1,-0.9090909090909918,-0.9749276743178967)"><svg viewBox="0 0 396 40" data-background-color="#ffffff" preserveAspectRatio="xMidYMid meet" height="151" width="1500" xmlns="http://www.w3.org/2000/svg" xmlns:xlink="http://www.w3.org/1999/xlink"><g id="tight-bounds" transform="matrix(1,0,0,1,0.2400000000000091,0.25825898657427615)"><svg viewBox="0 0 395.52 39.48348202685145" height="39.48348202685145" width="395.52"><g><svg viewBox="0 0 395.52 39.48348202685145" height="39.48348202685145" width="395.52"><g><svg viewBox="0 0 395.52 39.48348202685145" height="39.48348202685145" width="395.52"><g id="textblocktransform"><svg viewBox="0 0 395.52 39.48348202685145" height="39.48348202685145" width="395.52" id="textblock"><g><svg viewBox="0 0 395.52 39.48348202685145" height="39.48348202685145" width="395.52"><g transform="matrix(1,0,0,1,0,0)"><svg width="395.52" viewBox="0.7 -39 461.77000000000004 46.1" height="39.48348202685145" data-palette-color="#000000"><path d="M0.7-1.7L0.7-17.35Q1.4-16.95 2.15-16.63 2.9-16.3 3.7-16.15 4.5-16 5.2-16L5.2-16Q6.75-16 7.83-16.75 8.9-17.5 8.9-19.1L8.9-19.1Q8.9-19.5 8.9-20.85 8.9-22.2 8.9-24.15 8.9-26.1 8.9-28.25 8.9-30.4 8.9-32.35 8.9-34.3 8.9-35.7 8.9-37.1 8.9-37.5L8.9-37.5 29.65-37.5Q29.65-35.55 29.65-32.4 29.65-29.25 29.65-25.95L29.65-25.95Q29.65-24.35 29.65-22.8 29.65-21.25 29.65-19.88 29.65-18.5 29.65-17.38 29.65-16.25 29.65-15.53 29.65-14.8 29.65-14.55L29.65-14.55Q29.65-10.2 28.2-7.23 26.75-4.25 24.3-2.45 21.85-0.65 18.8 0.15 15.75 0.95 12.55 0.95L12.55 0.95Q9.15 0.95 6.15 0.35 3.15-0.25 0.7-1.7L0.7-1.7ZM53.65 1.5L53.65 1.5Q50.55 1.5 47.65 1.05 44.75 0.6 42.25-0.33 39.75-1.25 37.7-2.65 35.65-4.05 34.2-5.93 32.75-7.8 31.95-10.18 31.15-12.55 31.15-15.45L31.15-15.45Q31.15-18.85 32.27-21.58 33.4-24.3 35.47-26.35 37.55-28.4 40.35-29.78 43.15-31.15 46.52-31.83 49.9-32.5 53.65-32.5L53.65-32.5Q58.35-32.5 62.42-31.43 66.5-30.35 69.57-28.23 72.65-26.1 74.4-22.9 76.15-19.7 76.15-15.45L76.15-15.45Q76.15-11.2 74.4-8.03 72.65-4.85 69.57-2.73 66.5-0.6 62.42 0.45 58.35 1.5 53.65 1.5ZM53.7-11.75L53.7-11.75Q56.8-11.75 58.1-12.95 59.4-14.15 59.4-15.55L59.4-15.55Q59.4-16.2 59.1-16.85 58.8-17.5 58.15-18.05 57.5-18.6 56.4-18.93 55.3-19.25 53.7-19.25L53.7-19.25Q52.1-19.25 50.97-18.93 49.85-18.6 49.17-18.05 48.5-17.5 48.2-16.85 47.9-16.2 47.9-15.5L47.9-15.5Q47.9-14.8 48.2-14.13 48.5-13.45 49.2-12.93 49.9-12.4 51-12.08 52.1-11.75 53.7-11.75ZM77.65-37.5L77.65-37.5 94.95-37.5Q94.95-35.5 94.95-32.58 94.95-29.65 94.95-26.48 94.95-23.3 94.95-20.38 94.95-17.45 94.95-15.45L94.95-15.45Q94.95-14.5 95.45-13.8 95.95-13.1 96.8-12.65 97.65-12.2 98.72-11.98 99.8-11.75 100.9-11.75L100.9-11.75Q103.85-11.75 105.25-12.9 106.65-14.05 106.65-15.45L106.65-15.45Q106.65-16.5 106.02-17.35 105.4-18.2 104.12-18.73 102.85-19.25 100.9-19.25L100.9-19.25Q98.8-19.25 97.17-18.5 95.55-17.75 95-16.05L95-16.05 98.95-31Q100.6-31.4 102.22-31.58 103.85-31.75 105.4-31.75L105.4-31.75Q109.25-31.75 112.65-30.68 116.05-29.6 118.62-27.5 121.2-25.4 122.67-22.4 124.15-19.4 124.15-15.55L124.15-15.55Q124.15-11.85 122.67-8.85 121.2-5.85 118.67-3.7 116.15-1.55 113-0.4 109.85 0.75 106.45 0.75L106.45 0.75Q105 0.75 103.47 0.55 101.95 0.35 100.45-0.1 98.95-0.55 97.57-1.35 96.2-2.15 95.05-3.35L95.05-3.35Q95-3.4 94.97-3.38 94.95-3.35 94.95-3.3L94.95-3.3 94.95 0 77.65 0Q77.65-3.4 77.65-6.78 77.65-10.15 77.65-13.53 77.65-16.9 77.65-20.28 77.65-23.65 77.65-27.05L77.65-27.05Q77.65-29.65 77.65-32.27 77.65-34.9 77.65-37.5ZM151.74-22.6L151.74-22.6Q159.24-22.6 164.29-21.95 169.34-21.3 172.34-19.93 175.34-18.55 176.64-16.43 177.94-14.3 177.94-11.4L177.94-11.4Q177.94-8.25 175.92-5.83 173.89-3.4 170.27-1.78 166.64-0.15 161.87 0.68 157.09 1.5 151.59 1.5L151.59 1.5Q145.49 1.5 140.49 0.6 135.49-0.3 131.99-2.18 128.49-4.05 126.77-7 125.04-9.95 125.39-14.05L125.39-14.05 146.74-15.5Q146.34-14 146.97-13 147.59-12 148.94-11.5 150.29-11 151.94-11L151.94-11Q152.94-11 153.77-11.15 154.59-11.3 155.24-11.6 155.89-11.9 156.24-12.38 156.59-12.85 156.59-13.45L156.59-13.45Q156.59-14.65 155.37-15 154.14-15.35 151.79-15.35L151.79-15.35Q151.69-15.35 151.57-15.35 151.44-15.35 151.32-15.35 151.19-15.35 151.04-15.35 150.89-15.35 150.77-15.35 150.64-15.35 150.54-15.35L150.54-15.35Q143.14-15.35 138.24-16.13 133.34-16.9 130.49-18.3 127.64-19.7 126.44-21.63 125.24-23.55 125.24-25.95L125.24-25.95Q125.24-28.5 126.59-30.58 127.94-32.65 130.42-34.23 132.89-35.8 136.22-36.85 139.54-37.9 143.52-38.45 147.49-39 151.84-39L151.84-39Q157.99-39 162.87-37.9 167.74-36.8 171.07-34.75 174.39-32.7 175.84-29.85 177.29-27 176.54-23.45L176.54-23.45 155.89-22.5Q156.44-23.95 155.84-24.88 155.24-25.8 153.97-26.23 152.69-26.65 151.09-26.65L151.09-26.65Q150.09-26.65 149.29-26.48 148.49-26.3 147.92-25.98 147.34-25.65 147.02-25.2 146.69-24.75 146.69-24.25L146.69-24.25Q146.69-23.65 147.09-23.28 147.49-22.9 148.32-22.75 149.14-22.6 150.49-22.6L150.49-22.6Q150.59-22.6 150.72-22.6 150.84-22.6 150.97-22.6 151.09-22.6 151.22-22.6 151.34-22.6 151.47-22.6 151.59-22.6 151.74-22.6ZM226.04-15.55L226.04-15.55Q226.04-11.8 224.49-8.8 222.94-5.8 220.32-3.65 217.69-1.5 214.39-0.38 211.09 0.75 207.54 0.75L207.54 0.75Q205.74 0.75 203.82 0.43 201.89 0.1 200.12-0.53 198.34-1.15 196.94-2.05L196.94-2.05Q196.94-2.05 196.92-2.05 196.89-2.05 196.87-2.05 196.84-2.05 196.84-2.02 196.84-2 196.84-2L196.84-2 196.84 6 179.54 6Q179.54 2.9 179.54-0.18 179.54-3.25 179.54-6.3L179.54-6.3Q179.54-9.4 179.54-12.48 179.54-15.55 179.54-18.63 179.54-21.7 179.54-24.78 179.54-27.85 179.54-31L179.54-31 196.84-31Q196.84-28.35 196.84-25.8 196.84-23.25 196.84-20.7 196.84-18.15 196.84-15.45L196.84-15.45Q196.84-14.5 197.34-13.8 197.84-13.1 198.69-12.65 199.54-12.2 200.62-11.98 201.69-11.75 202.79-11.75L202.79-11.75Q204.74-11.75 206.02-12.3 207.29-12.85 207.92-13.7 208.54-14.55 208.54-15.45L208.54-15.45Q208.54-16.25 208.19-16.93 207.84-17.6 207.14-18.13 206.44-18.65 205.34-18.95 204.24-19.25 202.79-19.25L202.79-19.25Q200.69-19.25 199.07-18.5 197.44-17.75 196.89-16.05L196.89-16.05 200.89-31Q202.54-31.4 204.14-31.58 205.74-31.75 207.29-31.75L207.29-31.75Q210.34-31.75 213.17-31.05 215.99-30.35 218.32-29 220.64-27.65 222.39-25.68 224.14-23.7 225.09-21.18 226.04-18.65 226.04-15.55ZM249.54 1.5L249.54 1.5Q246.44 1.5 243.54 1.05 240.64 0.6 238.14-0.33 235.64-1.25 233.59-2.65 231.54-4.05 230.09-5.93 228.64-7.8 227.84-10.18 227.04-12.55 227.04-15.45L227.04-15.45Q227.04-18.85 228.16-21.58 229.29-24.3 231.36-26.35 233.44-28.4 236.24-29.78 239.04-31.15 242.41-31.83 245.79-32.5 249.54-32.5L249.54-32.5Q254.24-32.5 258.31-31.43 262.39-30.35 265.46-28.23 268.54-26.1 270.29-22.9 272.04-19.7 272.04-15.45L272.04-15.45Q272.04-11.2 270.29-8.03 268.54-4.85 265.46-2.73 262.39-0.6 258.31 0.45 254.24 1.5 249.54 1.5ZM249.59-11.75L249.59-11.75Q252.69-11.75 253.99-12.95 255.29-14.15 255.29-15.55L255.29-15.55Q255.29-16.2 254.99-16.85 254.69-17.5 254.04-18.05 253.39-18.6 252.29-18.93 251.19-19.25 249.59-19.25L249.59-19.25Q247.99-19.25 246.86-18.93 245.74-18.6 245.06-18.05 244.39-17.5 244.09-16.85 243.79-16.2 243.79-15.5L243.79-15.5Q243.79-14.8 244.09-14.13 244.39-13.45 245.09-12.93 245.79-12.4 246.89-12.08 247.99-11.75 249.59-11.75ZM303.99-17.4L290.79-17.4Q291.39-19.7 291.96-21.95 292.54-24.2 293.11-26.48 293.69-28.75 294.24-31L294.24-31 303.99-31 303.99-17.4ZM273.64-13.05L273.64-13.05Q273.64-17.35 273.64-22.1 273.64-26.85 273.64-31.1L273.64-31.1 290.74-35.2Q290.74-32.75 290.74-30.2 290.74-27.65 290.74-25.1L290.74-25.1Q290.74-23.25 290.74-21.4 290.74-19.55 290.74-17.75L290.74-17.75Q290.74-17.7 290.74-17.7 290.74-17.7 290.74-17.65L290.74-17.65Q290.74-16.7 291.16-16 291.59-15.3 292.36-14.83 293.14-14.35 294.19-14.1 295.24-13.85 296.54-13.85L296.54-13.85Q297.99-13.85 299.49-14.3 300.99-14.75 302.21-15.55 303.44-16.35 303.99-17.4L303.99-17.4 303.99-2.2Q301.84-0.5 298.44 0.33 295.04 1.15 291.64 1.15L291.64 1.15Q286.49 1.15 282.41-0.53 278.34-2.2 275.99-5.38 273.64-8.55 273.64-13.05ZM323.28 0L305.98 0Q305.98-4 305.98-7.98 305.98-11.95 305.98-15.93 305.98-19.9 305.98-23.85L305.98-23.85Q305.98-27.25 305.98-30.68 305.98-34.1 305.98-37.5L305.98-37.5 323.28-37.5Q323.28-35.4 323.28-33.33 323.28-31.25 323.28-29.15L323.28-29.15Q323.28-21.9 323.28-14.6 323.28-7.3 323.28 0L323.28 0ZM342.58 0L325.28 0Q325.28-2.3 325.28-4.58 325.28-6.85 325.28-9.13 325.28-11.4 325.28-13.65L325.28-13.65Q325.28-14.6 325.28-15.55 325.28-16.5 325.28-17.45L325.28-17.45Q328.18-17.45 331.06-17.45 333.93-17.45 336.83-17.45 339.73-17.45 342.58-17.45L342.58-17.45Q342.58-14.55 342.58-11.65 342.58-8.75 342.58-5.83 342.58-2.9 342.58 0L342.58 0ZM325.28-17.45L325.28-17.45Q325.28-20.85 325.28-24.25 325.28-27.65 325.28-31L325.28-31 342.58-31Q342.58-29.35 342.58-27.7 342.58-26.05 342.58-24.4 342.58-22.75 342.58-21.1L342.58-21.1Q342.58-21.1 342.56-21.08 342.53-21.05 342.53-21.05L342.53-21.05Q338.23-20.15 333.91-19.25 329.58-18.35 325.28-17.45ZM388.23-31L388.23-31 370.93-31Q370.93-30.45 370.93-29.38 370.93-28.3 370.93-27.75L370.93-27.75Q370.93-27.7 370.93-27.65 370.93-27.6 370.9-27.6 370.88-27.6 370.83-27.7L370.83-27.7Q370.18-28.65 369.25-29.33 368.33-30 367.23-30.48 366.13-30.95 364.95-31.23 363.78-31.5 362.63-31.63 361.48-31.75 360.48-31.75L360.48-31.75Q358.33-31.75 356.25-31.33 354.18-30.9 352.35-30.05 350.53-29.2 349-27.98 347.48-26.75 346.38-25.15 345.28-23.55 344.68-21.65 344.08-19.75 344.08-17.5L344.08-17.5Q344.08-14.15 345.35-11.53 346.63-8.9 348.8-7.08 350.98-5.25 353.78-4.28 356.58-3.3 359.63-3.3L359.63-3.3Q361.73-3.3 363.78-3.55 365.83-3.8 367.93-5.05L367.93-5.05 370.93-16.8Q369.98-13.9 365.98-13.9L365.98-13.9Q364.48-13.9 363.33-14.33 362.18-14.75 361.5-15.55 360.83-16.35 360.83-17.5L360.83-17.5Q360.83-18.6 361.48-19.35 362.13-20.1 363.3-20.48 364.48-20.85 365.98-20.85L365.98-20.85Q367.08-20.85 367.98-20.63 368.88-20.4 369.55-19.98 370.23-19.55 370.58-18.9 370.93-18.25 370.93-17.35L370.93-17.35 370.93-8.1Q370.93-6.2 370.18-4.9 369.43-3.6 368.13-2.8 366.83-2 365.15-1.63 363.48-1.25 361.58-1.25L361.58-1.25Q359.28-1.25 356.93-1.7 354.58-2.15 352.5-2.93 350.43-3.7 348.98-4.65L348.98-4.65 348.98 3.3Q352.38 5.2 356.68 6.15 360.98 7.1 365.38 7.1L365.38 7.1Q368.83 7.1 372.18 6.53 375.53 5.95 378.43 4.85 381.33 3.75 383.53 2.08 385.73 0.4 386.98-1.78 388.23-3.95 388.23-6.65L388.23-6.65Q388.23-12.75 388.23-18.85 388.23-24.95 388.23-31ZM407.48 0L390.18 0Q390.18-4.65 390.18-9.25 390.18-13.85 390.18-18.48 390.18-23.1 390.18-27.7L390.18-27.7Q390.18-30.2 390.18-32.63 390.18-35.05 390.18-37.5L390.18-37.5 407.48-37.5Q407.48-35.95 407.48-33.88 407.48-31.8 407.48-29.55 407.48-27.3 407.48-25.2L407.48-25.2Q407.48-22.4 407.48-20.4 407.48-18.4 407.48-18.15L407.48-18.15Q407.48-17.9 407.48-17.03 407.48-16.15 407.48-14.9L407.48-14.9Q407.48-13.25 407.48-11.2 407.48-9.15 407.48-7.03 407.48-4.9 407.48-3.05 407.48-1.2 407.48 0L407.48 0ZM430.08 0L412.78 0Q412.78-1.95 412.78-3.9 412.78-5.85 412.78-7.78 412.78-9.7 412.78-11.65 412.78-13.6 412.78-15.55L412.78-15.55Q412.78-17 412.05-17.65 411.33-18.3 410.33-18.38 409.33-18.45 408.5-18.2 407.68-17.95 407.48-17.65L407.48-17.65 411.48-30.5Q413.28-31.3 415.33-31.7 417.38-32.1 419.38-32.1L419.38-32.1Q422.18-32.1 424.6-31.2 427.03-30.3 428.55-28.35 430.08-26.4 430.08-23.15L430.08-23.15Q430.08-19.3 430.08-15.43 430.08-11.55 430.08-7.7 430.08-3.85 430.08 0L430.08 0ZM462.47-17.4L449.27-17.4Q449.87-19.7 450.45-21.95 451.02-24.2 451.6-26.48 452.17-28.75 452.72-31L452.72-31 462.47-31 462.47-17.4ZM432.12-13.05L432.12-13.05Q432.12-17.35 432.12-22.1 432.12-26.85 432.12-31.1L432.12-31.1 449.22-35.2Q449.22-32.75 449.22-30.2 449.22-27.65 449.22-25.1L449.22-25.1Q449.22-23.25 449.22-21.4 449.22-19.55 449.22-17.75L449.22-17.75Q449.22-17.7 449.22-17.7 449.22-17.7 449.22-17.65L449.22-17.65Q449.22-16.7 449.65-16 450.07-15.3 450.85-14.83 451.62-14.35 452.67-14.1 453.72-13.85 455.02-13.85L455.02-13.85Q456.47-13.85 457.97-14.3 459.47-14.75 460.7-15.55 461.92-16.35 462.47-17.4L462.47-17.4 462.47-2.2Q460.32-0.5 456.92 0.33 453.52 1.15 450.12 1.15L450.12 1.15Q444.97 1.15 440.9-0.53 436.82-2.2 434.47-5.38 432.12-8.55 432.12-13.05Z" opacity="1" transform="matrix(1,0,0,1,0,0)" fill="#000000" class="wordmark-text-0" data-fill-palette-color="primary" id="text-0"></path></svg></g></svg></g></svg></g></svg></g><g></g></svg></g><defs></defs></svg><rect width="395.52" height="39.48348202685145" fill="none" stroke="none" visibility="hidden"></rect></g></svg></g></svg>